<svg width="140" height="140" viewBox="0 0 140 140" fill="none" xmlns="http://www.w3.org/2000/svg">
<rect width="140" height="140" rx="6" fill="#EEF2FF"/>
<path d="M70 51.6667V88.3334" stroke="#6366F1" stroke-width="2" stroke-linecap="round" stroke-linejoin="round"/>
<path d="M78.3333 58.3333H65.8333C64.2862 58.3333 62.8025 58.9478 61.7085 60.0418C60.6146 61.1358 60 62.6195 60 64.1666C60 65.7137 60.6146 67.1974 61.7085 68.2914C62.8025 69.3853 64.2862 69.9999 65.8333 69.9999H74.1667C75.7138 69.9999 77.1975 70.6145 78.2915 71.7085C79.3854 72.8024 80 74.2862 80 75.8333C80 77.3804 79.3854 78.8641 78.2915 79.958C77.1975 81.052 75.7138 81.6666 74.1667 81.6666H60" stroke="#6366F1" stroke-width="2" stroke-linecap="round" stroke-linejoin="round"/>
</svg>
